<?xml version="1.0" encoding="UTF-8" standalone="no"?> <!-- Created with Vectornator for iOS (http://vectornator.io/) --><!DOCTYPE svg PUBLIC "-//W3C//DTD SVG 1.1//EN" "http://www.w3.org/Graphics/SVG/1.1/DTD/svg11.dtd">
<svg height="100%" style="fill-rule:evenodd;clip-rule:evenodd;stroke-linecap:round;stroke-linejoin:round;" xmlns:xlink="http://www.w3.org/1999/xlink" xmlns="http://www.w3.org/2000/svg" xml:space="preserve" width="100%" xmlns:vectornator="http://vectornator.io" version="1.1" viewBox="0 0 540.501 640.304">
<metadata>
<vectornator:setting key="Units" value="Points"/>
<vectornator:setting key="GuidesVisible" value="1"/>
<vectornator:setting key="RulersVisible" value="1"/>
<vectornator:setting key="SnapToGuides" value="1"/>
<vectornator:setting key="DynamicGuides" value="1"/>
</metadata>
<defs/>
<g id="Hand drawn copy" vectornator:layerName="Hand drawn copy">
<path stroke="#000000" stroke-width="1" d="M356.811+560.46C356.811+560.46+347.431+562.759+343.05+563.635C339+564.445+334.448+563.123+330.347+563.635C322.532+564.612+314.86+564.777+307.059+565.753C295.405+567.209+284.145+562.048+272.656+562.048C266.774+562.396+236.341+562.498+220.413+557.95C215.311+547.246+213.961+517.55+213.251+511.866C211.78+500.095+208.163+488.639+205.876+477.203C204.548+470.563+203.624+463.277+201.082+456.922C199.445+452.83+197.824+448.172+195.551+444.384C194.699+442.964+193.389+442.274+192.601+440.697C188.675+437.04+184.675+433.43+182.917+432.085C181.159+430.741+179.957+429.661+178.93+428.721C177.903+427.781+177.052+426.981+175.994+426.196C174.146+424.822+172.668+423.689+171.19+422.557C169.712+421.424+168.234+420.291+166.385+418.917C164.537+417.544+163.482+416.68+162.582+415.859C161.681+415.037+160.935+414.258+159.702+413.053C158.47+411.849+157.599+410.504+156.823+409.151C156.047+407.799+155.366+406.44+154.511+405.207C153.657+403.974+152.824+402.361+152.006+400.464C151.189+398.567+150.387+396.386+149.595+394.014C148.804+391.643+147.69+389.124+146.613+386.867C145.536+384.61+144.495+382.614+143.849+381.288C143.203+379.962+142.49+378.756+141.736+377.583C140.983+376.41+140.19+375.269+139.385+374.072C138.579+372.875+137.807+371.883+137.023+370.916C136.24+369.949+135.444+369.009+134.591+367.917C133.738+366.824+131.978+365.121+130.281+363.524C128.583+361.927+126.947+360.437+126.342+359.77C125.737+359.104+124.978+358.162+124.173+357.159C123.369+356.156+122.519+355.092+121.731+354.182C120.943+353.272+119.999+352.195+119.099+351.157C118.2+350.12+117.347+349.122+116.742+348.371C116.137+347.62+115.456+346.444+114.804+345.3C114.152+344.156+113.528+343.043+113.035+342.418C112.543+341.793+109.594+339.096+106.669+336.466C103.743+333.835+100.841+331.27+100.443+330.907C100.045+330.545+98.2746+329.172+96.5113+327.797C94.7481+326.422+92.9923+325.046+92.6242+324.679C92.2562+324.311+91.2681+323.54+90.2327+322.766C89.1972+321.993+88.1142+321.218+87.5563+320.842C86.9984+320.466+86.2998+319.96+85.4267+319.344C84.5536+318.728+83.506+318.002+82.2501+317.186C80.9942+316.371+80.4527+316.058+80.0645+315.832C79.6763+315.606+79.4414+315.467+78.7988+314.999C78.1562+314.531+77.7946+314.115+77.5146+313.679C77.2345+313.243+77.0359+312.787+76.7193+312.237C76.4026+311.687+76.3184+311.355+76.2705+311.007C76.2226+310.66+76.211+310.297+76.0394+309.687C75.8677+309.077+75.9277+308.207+76.057+307.371C76.1864+306.535+76.3851+305.732+76.4911+305.255C76.5971+304.779+76.8274+304.299+77.0811+303.844C77.3348+303.389+77.612+302.958+77.8117+302.579C78.0114+302.2+78.4137+301.758+78.8614+301.321C79.3091+300.884+79.8023+300.452+80.184+300.092C80.5657+299.733+81.2268+299.329+81.9573+298.913C82.6878+298.497+83.4877+298.068+84.1469+297.659C84.8061+297.249+86.1804+296.697+87.6702+296.153C89.1601+295.609+90.7654+295.074+91.8866+294.695C93.0078+294.317+94.2047+293.985+95.6266+293.655C97.0485+293.325+98.6954+292.996+100.717+292.623C101.285+292.518+103.843+292.505+106.622+292.569C109.401+292.633+112.403+292.775+113.858+292.978C115.461+293.203+118.409+294.087+121.086+294.955C123.763+295.824+126.168+296.675+126.687+296.834C127.205+296.992+129.715+298.137+132.224+299.29C134.732+300.444+137.239+301.607+137.749+301.804C138.259+302+139.196+302.479+140.191+302.996C141.186+303.513+142.239+304.068+142.979+304.415C143.72+304.761+144.389+305.504+145.005+306.323C145.621+307.142+146.185+308.038+146.714+308.691C147.243+309.344+147.891+310.428+148.535+311.631C149.178+312.834+149.816+314.156+150.325+315.286C150.834+316.415+151.351+317.754+151.865+319.048C152.379+320.342+152.891+321.591+153.389+322.54C153.887+323.489+154.488+324.448+155.144+325.391C155.8+326.334+156.509+327.26+157.224+328.142C157.938+329.024+160.259+331.028+162.496+332.882C164.734+334.736+166.888+336.44+167.269+336.721C167.65+337.001+169.459+338.281+171.317+339.581C173.175+340.881+175.081+342.201+175.655+342.562C176.229+342.923+177.211+343.534+178.142+344.118C179.072+344.703+179.949+345.259+180.313+345.511C180.676+345.763+181.175+346.098+181.703+346.398C182.232+346.697+182.789+346.96+183.269+347.068C183.749+347.175+184.126+347.164+184.51+347.118C184.895+347.072+185.288+346.989+185.8+346.954C186.312+346.919+186.608+346.944+186.945+346.913C187.282+346.881+187.661+346.794+188.336+346.535C189.012+346.277+189.375+346.07+189.713+345.767C190.051+345.464+190.365+345.066+190.945+344.424L193.157+341.983L195.37+339.543C195.911+338.937+197.019+337.364+198.106+335.764C199.192+334.164+200.257+332.538+200.712+331.826C201.166+331.114+201.722+330.267+202.323+329.344C202.923+328.422+203.569+327.423+204.201+326.409C204.833+325.395+205.212+324.704+205.577+323.939C205.942+323.174+206.293+322.335+206.869+321.023C207.445+319.71+207.756+318.57+207.985+317.289C208.215+316.007+208.363+314.584+208.613+312.706C208.863+310.829+208.985+308.321+209.046+305.851C209.107+303.38+209.106+300.947+209.113+299.218C209.119+297.489+208.97+295.659+208.806+293.729C208.641+291.799+208.461+289.77+208.404+287.643C208.347+285.515+208.075+282.606+207.785+279.97C207.494+277.334+207.185+274.971+207.052+273.938C206.919+272.904+206.593+271.233+206.255+269.553C205.917+267.873+205.567+266.185+205.386+265.119C205.206+264.053+204.648+261.502+203.996+258.703C203.344+255.905+202.597+252.86+202.04+250.807C201.482+248.753+201.137+247.662+200.653+246.308C200.168+244.953+199.545+243.334+198.432+240.224C197.173+236.781+196.35+233.431+195.626+229.96C194.903+226.489+194.281+222.897+193.425+218.971C189.06+198.939+184.418+176.666+180.868+159.401C177.318+142.136+174.859+129.878+174.859+129.878C174.859+129.878+173.636+126.943+173.709+122.724C173.783+118.506+175.154+113.004+180.344+107.873C184.837+103.43+190.534+102.325+195.383+103.104C200.233+103.882+204.235+106.543+205.34+109.629C207.427+115.461+212.335+128.969+216.474+140.289C220.613+151.609+223.983+160.741+222.99+157.82C221.998+154.899+226.695+170.882+231.639+187.595C236.583+204.309+241.776+221.752+241.776+221.752C241.776+221.752+243.009+225.521+244.451+229.715C245.893+233.908+247.543+238.527+248.377+240.227C249.211+241.926+249.978+243.682+250.747+245.034C251.517+246.387+252.287+247.336+253.128+247.424C253.968+247.512+254.599+247.567+255.281+247.373C255.963+247.178+256.696+246.735+257.742+245.827C258.788+244.918+259.298+244.055+259.639+243.109C259.98+242.163+260.152+241.134+260.523+239.894C260.893+238.654+261.525+234.441+262.121+230.01C262.718+225.579+263.28+220.928+263.512+218.812C264.06+213.805+264.4+210.566+264.603+208.58C264.806+206.593+264.872+205.859+264.872+205.859L264.957+197.487L265.043+189.116L264.768+181.896L264.493+174.676C264.493+174.676+264.468+171.499+264.527+167.532C264.586+163.564+264.728+158.807+265.06+155.645C265.391+152.483+265.903+146.373+266.332+141.053C266.761+135.734+267.106+131.205+267.106+131.205L267.903+118.45L268.699+105.694L268.957+91.5168L269.215+77.3393C269.215+77.3393+269.437+74.3148+270.228+70.8286C271.02+67.3423+272.382+63.3944+274.662+61.5475C276.942+59.7007+278.239+58.5515+279.557+57.6805C280.874+56.8095+282.211+56.2167+284.569+55.4826C286.927+54.7485+288.673+54.7155+290.294+55.1497C291.915+55.5839+293.41+56.4854+295.264+57.6203C297.119+58.7553+298.662+59.9402+299.916+61.3024C301.17+62.6647+302.135+64.2043+302.834+66.0487C303.533+67.8932+304.025+70.067+304.33+72.01C304.634+73.953+304.751+75.6652+304.699+76.5861C304.647+77.507+304.874+80.4156+305.182+83.4621C305.49+86.5086+305.879+89.6928+306.151+91.165C306.424+92.6372+306.764+95.375+307.042+98.1467C307.32+100.918+307.537+103.724+307.563+105.331C307.589+106.939+307.743+114.538+307.893+122.439C308.044+130.34+308.19+138.543+308.203+141.36C308.215+144.176+307.975+146.816+307.792+149.015C307.609+151.214+307.482+152.97+307.721+154.02C307.959+155.07+308.132+156.461+308.261+157.924C308.39+159.387+308.476+160.922+308.542+162.257C308.608+163.592+308.519+171.114+308.405+178.723C308.292+186.332+308.153+194.027+308.119+195.708C308.086+197.388+308.024+199.92+308.106+203.523C308.188+207.125+308.415+211.798+308.958+217.76C309.283+221.321+309.592+225.374+310.299+229.902C311.006+234.431+312.11+239.435+314.025+244.897C315.321+248.592+316.228+250.154+316.931+250.91C317.634+251.666+318.133+251.616+318.613+252.089C319.093+252.563+319.709+251.257+320.234+249.792C320.758+248.326+321.191+246.701+321.304+246.535C321.417+246.369+322.234+242.6+323.071+238.571C323.908+234.543+324.766+230.255+324.962+229.049C325.158+227.843+327.015+218.983+328.823+210.423C330.631+201.864+332.39+193.606+332.39+193.606L335.28+181.991L338.17+170.376C338.65+166.674+339.3+160.768+340.028+155.027C340.756+149.285+341.561+143.708+342.352+140.663C343.209+137.363+344.182+134.002+345.09+131.024C345.997+128.046+346.839+125.452+347.434+123.688C348.26+121.235+349.254+118.544+350.353+115.865C351.453+113.186+352.658+110.518+353.909+108.112C354.647+106.919+355.041+105.917+355.542+104.907C356.042+103.896+356.65+102.877+357.817+101.646C358.984+100.416+360.133+99.6162+361.211+99.0554C362.29+98.4945+363.298+98.1728+364.182+97.8993C365.066+97.6257+366.355+97.3768+367.707+97.2544C369.058+97.132+370.473+97.1363+371.608+97.3691C372.742+97.602+373.869+98.0019+374.963+98.5822C376.058+99.1624+377.12+99.9231+378.127+100.878C379.133+101.832+380.068+102.875+380.818+103.943C381.568+105.01+382.132+106.101+382.397+107.152C382.662+108.203+383.072+110.871+383.387+113.67C383.701+116.468+383.921+119.397+383.806+120.969C383.692+122.542+383.496+125.861+383.255+129.272C383.014+132.682+382.728+136.185+382.435+138.124C382.141+140.063+381.252+146.138+380.455+152.013C379.657+157.888+378.95+163.563+379.02+164.703C379.09+165.843+378.963+169.333+378.86+172.831C378.758+176.328+378.68+179.833+378.848+181.004C379.016+182.174+378.48+187.48+377.918+192.735C377.356+197.99+376.769+203.193+376.834+204.159C376.899+205.125+376.248+210.066+375.538+215.146C374.828+220.227+374.059+225.448+373.888+226.974C373.717+228.5+373.153+233.414+372.634+238.053C372.114+242.692+371.641+247.056+371.653+247.481C371.659+247.695+371.069+250.756+370.477+253.763C369.885+256.77+369.291+259.723+369.291+259.723C369.291+259.723+368.976+262.303+368.655+265.083C368.333+267.862+368.005+270.842+367.978+271.642C367.925+273.248+367.856+274.612+367.829+275.685C367.802+276.759+367.817+277.542+367.935+277.984C368.053+278.427+368.081+278.958+368.215+279.365C368.349+279.771+368.589+280.053+369.131+279.996C369.673+279.939+370.449+279.635+371.147+279.303C371.845+278.971+372.464+278.612+372.691+278.448C372.917+278.283+373.633+277.739+374.381+277.165C375.13+276.592+375.911+275.989+376.27+275.708C376.629+275.427+377.469+274.666+378.274+273.924C379.079+273.182+379.849+272.459+380.068+272.254C380.287+272.048+381.059+271.257+381.818+270.462C382.577+269.666+383.324+268.865+383.494+268.641C383.665+268.417+384.405+267.482+385.146+266.552C385.886+265.621+386.627+264.695+386.798+264.491C386.969+264.286+387.462+263.474+387.988+262.634C388.514+261.794+389.072+260.926+389.374+260.611C389.676+260.296+391.201+258.815+392.733+257.312C394.265+255.809+395.805+254.283+396.136+253.877C396.467+253.47+398.289+251.024+400.146+248.497C402.004+245.971+403.897+243.364+404.37+242.636C404.843+241.907+407.201+238.622+409.47+235.455C411.74+232.287+413.92+229.238+414.039+228.98C414.157+228.722+416.539+225.445+418.89+222.233C421.242+219.02+423.564+215.872+423.564+215.872L427.61+209.274L431.657+202.677C431.657+202.677+432.61+200.669+433.672+198.522C434.734+196.375+435.904+194.089+436.337+193.532C437.14+192.498+437.967+191.478+438.914+190.552C439.86+189.626+440.927+188.794+442.212+188.136C443.055+187.704+444.31+187.105+445.564+186.598C446.819+186.091+448.073+185.678+448.914+185.616C449.756+185.555+450.671+185.621+451.502+185.759C452.332+185.896+453.078+186.106+453.58+186.33C454.081+186.555+454.843+186.929+455.595+187.345C456.348+187.761+457.09+188.218+457.553+188.609C458.017+189+458.612+189.627+459.206+190.326C459.801+191.025+460.395+191.797+460.858+192.479C461.321+193.161+461.86+193.656+462.329+194.271C462.797+194.887+463.194+195.624+463.373+196.79C463.552+197.957+463.944+199.272+464.216+200.75C464.488+202.228+464.64+203.869+464.338+205.687C464.036+207.506+463.765+208.722+463.448+209.749C463.131+210.776+462.768+211.614+462.285+212.676C461.802+213.737+460.736+216.15+459.614+218.644C458.492+221.138+457.315+223.713+456.609+225.101C456.018+226.261+455.121+228.174+454.176+230.173C453.23+232.171+452.238+234.255+451.458+235.757C450.679+237.258+449.457+239.666+448.274+242.002C447.091+244.338+445.948+246.603+445.324+247.82C444.7+249.036+443.323+251.534+441.913+254.032C440.503+256.53+439.061+259.028+438.308+260.244C437.555+261.46+436.93+262.468+436.38+263.379C435.829+264.29+435.354+265.105+434.898+265.936C434.442+266.767+433.908+267.944+433.266+269.131C432.624+270.318+431.874+271.515+430.989+272.386C430.104+273.257+428.995+274.502+427.89+275.711C426.785+276.92+425.684+278.095+424.814+278.826C424.342+279.542+423.762+280.457+423.266+281.251C422.77+282.044+422.358+282.716+422.222+282.945C422.086+283.174+421.165+284.331+420.208+285.564C419.251+286.797+418.256+288.107+417.972+288.643C417.687+289.179+416.689+290.714+415.726+292.335C414.763+293.956+413.836+295.663+413.694+296.539C413.265+297.602+412.715+298.86+412.222+300.07C411.729+301.281+411.293+302.445+411.092+303.32C410.891+304.196+410.499+305.616+410.117+306.973C409.735+308.331+409.363+309.626+409.201+310.253C409.038+310.88+408.82+311.281+408.616+311.635C408.413+311.988+408.225+312.294+408.125+312.732C408.024+313.17+408.007+313.463+407.909+313.903C407.811+314.344+407.633+314.933+407.21+315.963C406.786+316.993+406.412+317.606+406.099+318.033C405.785+318.461+405.532+318.702+405.351+318.989C405.206+319.72+405.076+320.422+404.942+321.248C404.808+322.074+404.671+323.023+404.512+324.247C404.352+325.47+404.105+327.581+403.879+329.551C403.652+331.521+403.447+333.35+403.37+334.007C403.294+334.663+402.943+337.836+402.579+340.986C402.215+344.136+401.837+347.263+401.705+347.828C401.573+348.393+401.101+351.158+400.645+354.016C400.189+356.873+399.748+359.823+399.679+360.755C399.611+361.688+399.141+365.971+398.688+370.021C398.236+374.071+397.8+377.888+397.8+377.888C396.342+380.803+396.986+383.79+396.212+386.885C394.148+395.143+392.448+403.53+390.39+411.761C386.702+426.513+379.258+440.41+375.57+455.162C371.92+469.762+372.184+485.327+369.219+500.151C368.58+503.347+370.008+507.049+369.219+510.207C367.265+518.024+369.055+526.741+367.102+534.554C366.464+537.107+367.102+540.936+367.102+543.552C367.102+548.152+366.389+553.815+363.875+555.855L356.811+560.46Z" fill="#000000" stroke-linecap="round" fill-opacity="0" opacity="1" stroke-linejoin="round"/>
</g>
</svg>
